<svg xmlns="http://www.w3.org/2000/svg" viewBox="-88 -86 752 675" width="512" height="512">
    <mask id="a">
        <path fill="#fff" d="M0 0h690v492H0z" />
        <circle r="26" transform="matrix(1.6 0 0 1.6 104 294)" />
        <circle r="26" transform="matrix(1.6 0 0 1.6 264 329)" />
    </mask>
    <g mask="url(#a)">
        <path id="globe" fill="#80b836" fill-rule="evenodd"
            d="m347 16-16 1c-14 0-40 4-58 9l-24 6c-5 1-13 3-28 9l-21 8-19 17c-17 16-20 19-37 41l-17 24-12 27-11 29 4 26 6 36c0 17 7 48 14 70 4 12 12 27 17 35 3 3 5 7 5 9l4 15 4 13 16 16a296 296 0 0 0 36 31l14 12 4 4 37 8 37 7h20c20 0 20 0 25-3l6-4 11-1 32-7 23-7 22-12 25-14c5-3 43-40 49-47l11-19c6-13 9-15 13-17l2-1 7-10 5-9 3-17c6-33 8-50 8-63 0-15-1-17-16-67l-6-21-11-17c-9-15-10-16-9-18 2-1 1-4-10-25l-12-24-20-12-28-15c-12-5-26-9-31-8h-7a215 215 0 0 1-32-10c-7 0-17-2-21-5-5-2-6-2-14 0m-44 9-6 2-8 1c-6 1-22 5-32 9l-7 3 2 3 3 3-9 3c-6 2-13 5-18 9l-9 6-1 8v8h3c11-3 12-4 26-15 13-12 13-12 14-9l3 2c2 0 2 0-1 4l-3 5 5 2c5 1 6 2 9 8l7 13c4 6 4 7 2 7l-18 5-29 7 9 11 9 11-10 3c-8 2-11 2-19 1h-9l-17 14-16 15-5 11c-4 11-5 11-9 14a287 287 0 0 0-19 12l-3 15-3 15c-2 2-5-4-11-17l-6-15-2 5c-2 4-3 9-4 17-1 11-1 13 1 19 1 4 2 8 4 9l4 7 2 4-1-8v-7h13l4 7 5 6-7 5c-12 8-12 7-11 21v12l6 9 10 15c5 5 3 5 25 11a249 249 0 0 1 60 40c6 6 11 9 25 15 16 9 17 9 21 15l5 7 15 4a393 393 0 0 0 50 12l24 7 9 3 2 4v6l-13 6c-19 7-13 7 18-1l24-7 19-10 25-14c8-5 43-39 50-48 5-6 14-22 14-24h-2l-17 2h-17l-1-29-1-27 4-33c4-34 5-36 6-34 1 1 1 1 1-1-1-2 1-10 5-21 5-15 7-18 10-23 3-2 7-8 9-12l6-8 5 6 4 6c0-1 2 0 3 2l3 2-1-5-2-9-12-24 2 7 1 7-4-7-3-7-1 4-1 4c-1 0-5-4-6-8-2-2-2-3 0-4 1-1 1-2-1-3l-2-2-1 15c-1 14-1 15-4 20-3 7-5 8-12 8-5 1-4 3-15-21l-6-16 7-1c6 0 7 0 8-2 2-2 2-3 0-6-2-4-4-5-12-10l-5-4 3-4 3-3-3-11c-3-9-4-12-8-17l-5-7-2-2h-2c-1 3-15-7-24-16-6-7-9-10-15-12-7-4-33-12-41-13-4-1-4-1-5 6-1 4-1 4-10 6s-11 3-17 12a51 51 0 0 0-6 12c-2 2-2 2-4 1s-3-3-1-3c2-1 1-3-2-6s-3-4-2-8v-4c-2-2-9 0-12 2-2 3-3 3-11 1l-2-1 8-5 8-5-2-5-3-4h-5l-5-1-1-1-3 1m-30 12-8 4 7 3c7 3 9 3 11-1l3-1 3-1c2-1 2-1-1-4-3-1-5-2-6-1-2 0-2 0-1-1 0-2 1-3-8 2m109 2-1 4 4 6 5 6 13-5c2-1-1-4-10-9l-9-5-2 3m53 25-2 4 7 5c5 5 6 5 5 7l-2 6-2 6 7 5 8 3-4-10-4-10c2 0 6 6 10 14l6 9 7-7-6-10c-4-7-7-10-16-16l-11-9c-1 0-3 1-3 3M163 287l-13 7 13 15 5 5 6-2 5-2v-6l-4-23-12 6m-30 31c4 12 14 31 15 31l-3-9-6-17c-2-6-7-16-9-17l3 12" />
        <path id="face" fill="#3c6be3" stroke="#333" stroke-width="24"
            d="M304 188q-23 14-36 30-11 13-56 2l-32-11q-14-6-17-9l-6-13-8-21q-14-28-32-32-17 10-30 30-14 19-20 41-3 12-22 55-17 49-21 96-2 32 30 43 41 20 120 49 68 24 80 26 7 2 33-13 27-15 55-36 32-23 51-43 21-24 19-38-5-25-23-77-22-60-45-97-17 3-40 18Z" />
        <circle id="eye1" r="26" fill="#E4E1C3" transform="matrix(1.6 0 0 1.6 104 294)" />
        <circle id="eye2" r="26" fill="#E4E1C3" transform="matrix(1.6 0 0 1.6 264 329)" />
        <path id="mouth" fill="#333"
            d="m166 378-19-4q-14-3-15-2l-2 10 1 13 1 7 6 8q5 6 12 9 8 3 16 1l11-3q8-3 15-10l6-9q3-5 1-9-1-3-33-11Z" />
    </g>
    <style>
        @media (prefers-color-scheme: dark) {
        #globe{
        fill:#9fbb5e;
        }
        }
        @media (max-width: 48px) {
        #mouth{
        display:none;
        }
        }
    </style>
</svg>