<svg viewBox="0 20 165 100" xmlns="http://www.w3.org/2000/svg">
    <path
        d="M 117.55 22.45Q 107.9 28.35 102.3 35.3 97.95 40.7 79.05 35.9 72 34.05 65.65 31.5 59.65 29.05 58.4 27.6 57.55 26.6 55.8 22.1 53.45 16.05 52.25 13.45 46.65 1.7 38.85 0 32.05 4.05 26.25 12.45 20.55 20.7 17.95 29.95 16.6 34.8 8.9 53.05 1.55 73.3 0.05 93.1 -0.95 106.6 12.65 111.15 29.85 119.65 63.1 131.65 91.6 141.95 96.5 142.8 99.45 143.35 110.55 137.25 121.7 131 133.6 122.25 146.9 112.4 154.65 103.95 163.7 94 162.7 88.25 160.9 77.55 153 55.95 143.8 30.65 134.45 15.25 127 16.5 117.55 22.45 Z"
        fill="#fff" />
</svg>